<?xml version="1.0" encoding="UTF-8" standalone="no"?>
<!-- Created with Inkscape (http://www.inkscape.org/) -->

<svg
   version="1.1"
   id="svg1"
   width="286.01123"
   height="199"
   viewBox="0 0 286.01123 199"
   xmlns="http://www.w3.org/2000/svg"
   xmlns:svg="http://www.w3.org/2000/svg">
  <defs
     id="defs1" />
  <g
     id="g1"
     transform="translate(-126.04041,-159.09091)">
    <path
       style="fill:#fcce2f"
       d="m 135.3317,355.84091 c -3.68121,-4.02593 -4.92852,-7.35167 -8.22959,-21.94282 -0.70383,-3.11099 -1.0617,-33.36349 -1.0617,-89.75 v -85.05718 h 35 35 v 51.5 c 0,28.325 0.19599,51.5 0.43553,51.5 0.23954,0 10.82319,-10.21168 23.51922,-22.69262 12.69602,-12.48094 24.28552,-23.48101 25.75443,-24.4446 2.35316,-1.54365 5.11565,-1.72885 23.23079,-1.55738 l 20.56003,0.1946 0.5,24.22127 0.5,24.22128 4.5,-4.25048 c 2.475,-2.33776 7.62114,-7.61233 11.43586,-11.72127 3.81472,-4.10894 15.93031,-16.81497 26.92353,-28.23563 l 19.98767,-20.76483 29.07647,0.26483 29.07647,0.26483 0.25562,17.5 0.25562,17.5 -62.94221,62.75 -62.94221,62.75 h -24.95642 c -21.8345,0 -25.03235,-0.19787 -25.56341,-1.58179 -0.33385,-0.86998 -0.60699,-9.68248 -0.60699,-19.58333 0,-11.51015 -0.35919,-17.88135 -0.99607,-17.66821 -0.54784,0.18333 -9.68523,8.99583 -20.3053,19.58333 l -19.30922,19.25 h -28.52039 c -28.30045,0 -28.53626,-0.0174 -30.57773,-2.25 z"
       id="path1" />
  </g>
</svg>
