<?xml version="1.0" encoding="UTF-8" standalone="no"?>
<!-- Created with Inkscape (http://www.inkscape.org/) -->

<svg
   width="210mm"
   height="297mm"
   viewBox="0 0 210 297"
   version="1.1"
   id="svg1"
   xml:space="preserve"
   xmlns="http://www.w3.org/2000/svg"
   xmlns:svg="http://www.w3.org/2000/svg"><defs
     id="defs1"><rect
       x="72.566933"
       y="369.63779"
       width="666.70868"
       height="231.30708"
       id="rect2" /><rect
       x="29.480314"
       y="322.01575"
       width="739.27557"
       height="340.15747"
       id="rect1" /></defs><g
     id="layer1"
     style="display:inline"><g
       id="g4"
       transform="translate(5.0911688,4.2426409)"><g
         id="g5"
         transform="translate(-5.5154329,-0.84852814)"><text
           xml:space="preserve"
           transform="matrix(0.26458333,0,0,0.26458333,5.5154329,12.727922)"
           id="text1"
           style="text-align:start;writing-mode:lr-tb;direction:ltr;white-space:pre;shape-inside:url(#rect1);fill:#ff2a2a" /><text
           xml:space="preserve"
           transform="matrix(1.9581974,0,0,4.5141186,-100.63303,-1534.6613)"
           id="text2"
           style="text-align:start;writing-mode:lr-tb;direction:ltr;white-space:pre;shape-inside:url(#rect2);fill:#ff2a2a" /><rect
           x="115.27096"
           y="141.77431"
           width="86.66877"
           height="31.392221"
           rx="16.667074"
           ry="15.696111"
           fill="#ffcc33"
           id="rect1-9"
           style="stroke-width:0.161743"
           transform="matrix(0.99989022,0.01481719,-0.01670758,0.99986042,0,0)" /><path
           d="m 146.53597,147.76318 q 0,1.5733 -0.55123,2.75615 -0.53975,1.17136 -1.49291,1.95226 -0.94169,0.78091 -2.2164,1.17137 -1.26324,0.39045 -2.7217,0.39045 -0.56271,0 -1.24026,-0.14929 -0.66607,-0.14929 -1.35511,-0.36749 -0.68903,-0.22968 -1.33213,-0.48232 -0.63162,-0.26413 -1.12543,-0.49381 l 0.50529,-4.73138 q 0.97614,0.58568 2.15898,0.89574 1.19433,0.29859 2.34273,0.29859 0.21819,0 0.52826,-0.0115 0.31006,-0.023 0.58568,-0.10335 0.2871,-0.0919 0.48232,-0.26413 0.19523,-0.17226 0.19523,-0.49381 0,-0.2182 -0.13781,-0.36749 -0.1378,-0.16077 -0.356,-0.25265 -0.21819,-0.10335 -0.49381,-0.14929 -0.27561,-0.0574 -0.53974,-0.0804 -0.26413,-0.023 -0.49381,-0.023 -0.22968,0 -0.36749,0 -0.98762,0 -1.80298,-0.34452 -0.80387,-0.34452 -1.38955,-0.95317 -0.5742,-0.62013 -0.89575,-1.45846 -0.32155,-0.84981 -0.32155,-1.83743 0,-1.3551 0.53975,-2.42311 0.55123,-1.07949 1.45846,-1.82594 0.91871,-0.75794 2.10156,-1.15988 1.18284,-0.40194 2.44607,-0.40194 0.56272,0 1.15988,0.0459 0.59717,0.0344 1.18285,0.13781 0.59716,0.10335 1.15987,0.26413 0.56272,0.16077 1.06801,0.40193 l -0.43639,4.66248 q -0.78091,-0.26413 -1.6422,-0.43639 -0.84981,-0.18374 -1.66517,-0.18374 -0.14929,0 -0.39046,0.0115 -0.22967,0 -0.49381,0.0344 -0.25264,0.023 -0.51677,0.0804 -0.26413,0.0574 -0.47084,0.16078 -0.20671,0.0919 -0.33304,0.25264 -0.12632,0.16078 -0.11484,0.37897 0.0115,0.25265 0.18375,0.41343 0.18374,0.14929 0.45935,0.24116 0.2871,0.0804 0.62014,0.11484 0.34451,0.0344 0.67755,0.0459 0.33303,0 0.62013,0 0.2871,-0.0115 0.47084,0.0115 0.91872,0.0574 1.65369,0.39045 0.73497,0.33304 1.24026,0.88426 0.51678,0.55123 0.78091,1.32066 0.27562,0.75794 0.27562,1.67665 z m 12.60936,-10.08289 -0.11484,4.86918 -3.42222,0.13781 -0.41342,10.65709 -4.84622,0.25265 -0.43639,-10.65709 -3.42221,0.18374 0.13781,-5.42042 z m 14.34343,0.023 q -0.51678,4.04235 -0.88426,8.05024 -0.36749,3.99641 -0.70052,8.05024 l -4.70842,0.34452 0.20672,-1.76853 q -0.22968,0.26413 -0.53975,0.45936 -0.29858,0.19523 -0.6431,0.32155 -0.34452,0.11484 -0.712,0.17226 -0.36749,0.0459 -0.70052,0.0345 -0.78091,-0.0115 -1.46995,-0.29858 -0.68903,-0.29858 -1.26323,-0.78091 -0.5742,-0.49381 -1.03355,-1.13691 -0.45936,-0.65458 -0.78091,-1.36659 -0.31007,-0.72348 -0.48233,-1.46994 -0.16077,-0.74646 -0.16077,-1.44698 0,-1.03355 0.0344,-2.13601 0.0459,-1.11394 0.14929,-2.22788 0.10336,-1.11394 0.26413,-2.20492 0.17226,-1.09097 0.42491,-2.09007 1.40104,0.0689 2.81356,0.12632 1.41252,0.0574 2.81356,0.0344 -0.26413,0.9991 -0.52826,2.00969 -0.25264,0.9991 -0.45935,2.02117 -0.20671,1.01059 -0.33304,2.03266 -0.12632,1.02207 -0.12632,2.06711 0,0.24116 0.023,0.68903 0.023,0.44788 0.11484,0.88427 0.10335,0.43639 0.29858,0.76942 0.20671,0.32155 0.5742,0.32155 0.43638,0 0.7809,-0.36748 0.34452,-0.37897 0.60865,-1.01059 0.26413,-0.63162 0.44788,-1.45846 0.19522,-0.82684 0.32155,-1.72259 0.1378,-0.90723 0.21819,-1.82595 0.0804,-0.91871 0.11484,-1.72259 0.0459,-0.81536 0.0574,-1.45846 0.023,-0.6431 0.023,-0.9991 0,-0.22968 -0.0115,-0.44787 -0.0115,-0.2182 -0.0344,-0.44788 0.74646,0.023 1.48143,0.0345 0.73497,0.0115 1.48143,0.0115 0.57419,0 1.14839,0 0.58568,-0.0115 1.17136,-0.0459 z m 13.70034,7.05114 q 0,1.60775 -0.41342,2.88247 -0.41343,1.27471 -1.15988,2.26233 -0.73497,0.97614 -1.75704,1.66517 -1.02207,0.68904 -2.23937,1.13691 -1.2173,0.43639 -2.59537,0.6431 -1.36659,0.20671 -2.81357,0.20671 -0.53974,0 -1.05652,-0.023 -0.51677,-0.0344 -1.05652,-0.0919 l 0.32155,-14.95209 q 1.26323,-0.40194 2.59537,-0.56271 1.34362,-0.17226 2.66427,-0.17226 1.64221,0 3.02028,0.45936 1.37807,0.45935 2.37717,1.3551 0.99911,0.88426 1.55033,2.19343 0.56272,1.29769 0.56272,2.99731 z m -7.80908,4.40983 q 0.68904,-0.10335 1.25175,-0.41342 0.5742,-0.32155 0.98762,-0.78091 0.41342,-0.47084 0.63161,-1.05652 0.22968,-0.59716 0.22968,-1.26323 0,-0.65459 -0.1378,-1.2173 -0.13781,-0.5742 -0.44788,-0.98762 -0.31006,-0.4249 -0.81536,-0.66607 -0.50529,-0.25264 -1.24026,-0.27561 z m 14.5157,-11.46097 -0.80388,15.64112 -4.84622,0.25265 -0.45936,-15.57222 z m 15.0095,7.37269 q 0,1.04504 -0.24116,2.02117 -0.24116,0.96465 -0.70052,1.81446 -0.44787,0.84982 -1.10246,1.56182 -0.6431,0.70052 -1.45846,1.20581 -0.80387,0.5053 -1.75704,0.79239 -0.95317,0.27562 -2.02117,0.27562 -1.03356,0 -1.97524,-0.26413 -0.9302,-0.26413 -1.74556,-0.73497 -0.81536,-0.48233 -1.48143,-1.1484 -0.65458,-0.67755 -1.12542,-1.49291 -0.45936,-0.82684 -0.72349,-1.76852 -0.25265,-0.94169 -0.25265,-1.96376 0,-0.9991 0.24117,-1.95227 0.24116,-0.96465 0.68903,-1.81446 0.45936,-0.84981 1.10246,-1.56181 0.6431,-0.71201 1.43549,-1.22878 0.80388,-0.51678 1.73408,-0.80388 0.9302,-0.2871 1.96375,-0.2871 1.66517,0 3.03176,0.51678 1.37807,0.51678 2.34272,1.48143 0.97614,0.95316 1.5044,2.31975 0.53974,1.35511 0.53974,3.03176 z m -5.09887,0.29858 q 0,-0.49381 -0.14929,-0.95316 -0.1378,-0.47085 -0.41342,-0.82685 -0.27561,-0.36748 -0.68903,-0.58568 -0.40194,-0.22968 -0.9302,-0.22968 -0.53975,0 -0.96465,0.19523 -0.42491,0.19523 -0.73498,0.53974 -0.29858,0.33304 -0.45935,0.7924 -0.16078,0.44787 -0.16078,0.95316 0,0.48233 0.13781,0.96465 0.13781,0.48233 0.41342,0.87278 0.27562,0.39046 0.67755,0.63162 0.41342,0.24116 0.95317,0.24116 0.53974,0 0.96465,-0.20671 0.43639,-0.21819 0.73497,-0.5742 0.29858,-0.36748 0.45936,-0.83832 0.16077,-0.47084 0.16077,-0.97614 z"
           id="text3"
           style="font-size:23.5191px;font-family:'Luckiest Guy';-inkscape-font-specification:'Luckiest Guy, Normal';stroke-width:0.346749"
           transform="scale(0.91134243,1.0972824)"
           aria-label="Studio" /><path
           d="m 100.32866,144.1952 -8.022058,16.6299 h 8.022058 l -4.813234,13.30393 16.044124,-19.95588 h -8.02207 l 4.81324,-9.97795 z"
           fill="#ffcc33"
           id="path1"
           style="stroke-width:0.163343" /><path
           d="m 133.16386,503.43512 q -0.21434,3.35802 -0.39296,6.64459 -0.17862,3.28657 -0.46441,6.64458 l -15.1468,0.78592 -0.35724,4.50117 h 10.64563 l -0.78592,11.07431 -10.71707,0.35724 -0.35724,5.21564 h 8.85945 6.28735 q -0.21434,3.9296 -0.4644,7.82347 -0.21434,3.85815 -0.39296,7.75202 l -30.793733,0.71447 1.143153,-51.51341 z m 42.79685,38.79581 q 0,2.96506 -1.10743,5.10848 -1.07171,2.14341 -2.89361,3.6438 -1.8219,1.50039 -4.21538,2.46493 -2.35776,0.92881 -4.92986,1.46467 -2.57209,0.53585 -5.17992,0.71447 -2.57209,0.17862 -4.82268,0.17862 -2.21486,0 -4.60834,-0.17862 -2.35776,-0.1429 -4.71552,-0.53586 -2.35775,-0.39296 -4.64406,-1.03598 -2.28631,-0.67875 -4.32256,-1.67901 l -0.0714,-46.01198 q 2.00052,-0.82164 4.2511,-1.46466 2.25059,-0.67875 4.57262,-1.10744 2.35776,-0.4644 4.67979,-0.67874 2.32204,-0.25007 4.50117,-0.25007 2.53638,0 5.10848,0.32151 2.60782,0.32152 5.0013,1.07171 2.39348,0.7502 4.46545,1.9648 2.07196,1.17888 3.60808,2.92933 1.57184,1.75046 2.4292,4.07249 0.89309,2.32203 0.89309,5.35854 0,2.00052 -0.57157,3.75098 -0.57158,1.75045 -1.64329,3.14367 -1.07171,1.39322 -2.60782,2.39348 -1.53612,0.96454 -3.46519,1.42894 2.32203,0.60731 4.21538,1.78618 1.92908,1.17888 3.25085,2.85789 1.3575,1.67901 2.07197,3.7867 0.75019,2.10769 0.75019,4.50117 z m -18.14758,-20.36244 q 0,-1.03598 -0.42868,-1.75046 -0.42868,-0.75019 -1.07171,-1.2146 -0.6073,-0.46441 -1.3575,-0.67875 -0.71447,-0.21434 -1.28604,-0.21434 -0.71448,0 -1.39322,0.21434 -0.67875,0.21434 -1.32178,0.50013 l -0.21434,7.93064 q 0.82164,0 2.03625,-0.14289 1.2146,-0.1429 2.32203,-0.60731 1.14315,-0.50013 1.92907,-1.42894 0.78592,-0.96454 0.78592,-2.60782 z m -5.07275,11.64589 q -1.03598,0 -2.00052,0.21434 l -0.14289,8.14498 q 0.53585,0.10717 1.03598,0.21434 0.53586,0.0715 1.03599,0.0715 0.75019,0 1.64328,-0.1429 0.89309,-0.17862 1.67901,-0.64302 0.78592,-0.50013 1.28605,-1.32178 0.53585,-0.82164 0.53585,-2.17913 0,-1.3575 -0.53585,-2.21487 -0.50013,-0.85736 -1.25033,-1.32177 -0.75019,-0.50013 -1.64328,-0.64302 -0.89309,-0.17862 -1.64329,-0.17862 z m 56.44327,2.50065 -1.50039,15.86127 -30.07926,2.35776 1.14316,-51.01328 h 18.57626 l -2.64354,32.79425 z m 20.32672,-31.36531 -2.50065,48.65552 -15.07535,0.78592 -1.42895,-48.44118 z"
           id="text4"
           style="font-size:73.1619px;font-family:'Luckiest Guy';-inkscape-font-specification:'Luckiest Guy, Normal';white-space:pre"
           transform="matrix(0.36330491,0,0,0.37374438,6.7920877,-37.593352)"
           aria-label="Ebli" /><path
           style="fill:#fcce2f;stroke-width:0.108142"
           d="m 11.906312,168.81447 c -0.392924,-0.4411 -0.526059,-0.80549 -0.878407,-2.40418 -0.07513,-0.34085 -0.113324,-3.6555 -0.113324,-9.83353 v -9.31936 h 3.73582 3.735819 v 5.64264 c 0,3.10345 0.02093,5.64264 0.04648,5.64264 0.02557,0 1.155242,-1.11885 2.510387,-2.48634 1.355144,-1.36749 2.592181,-2.57271 2.748969,-2.67829 0.25117,-0.16913 0.546032,-0.18942 2.479599,-0.17063 l 2.194534,0.0214 0.05337,2.65383 0.05337,2.65382 0.480318,-0.46571 c 0.264178,-0.25614 0.813464,-0.83405 1.220638,-1.28425 0.407174,-0.4502 1.700367,-1.84235 2.873757,-3.09365 l 2.133435,-2.27512 3.103557,0.0291 3.103556,0.0291 0.02727,1.9174 0.02727,1.9174 -6.718279,6.87525 -6.718307,6.87526 h -2.66379 c -2.330566,0 -2.671897,-0.0217 -2.72858,-0.1733 -0.03564,-0.0953 -0.06479,-1.06088 -0.06479,-2.14567 0,-1.26112 -0.03834,-1.95919 -0.106318,-1.93584 -0.05847,0.0201 -1.03378,0.98565 -2.167341,2.14567 l -2.061022,2.10914 H 15.17011 c -3.020726,0 -3.045895,-0.002 -3.263797,-0.24652 z"
           id="path1-3" /></g></g></g></svg>
